<svg width="136" height="31" viewBox="0 0 136 31" fill="none" xmlns="http://www.w3.org/2000/svg">
<g clip-path="url(#clip0_391_2794)">
<rect x="0.65332" y="0.253235" width="35.3745" height="9.30909" rx="4.65455" fill="#39E7BD"/>
<rect x="9.9624" y="10.9587" width="35.3745" height="9.30909" rx="4.65455" fill="#07143D"/>
<rect x="0.65332" y="21.6641" width="35.3745" height="9.30909" rx="4.65455" fill="#39E7BD"/>
</g>
<path d="M45.4699 21.0132H41.3449V9.37688H45.504C46.6744 9.37688 47.682 9.60984 48.5267 10.0757C49.3714 10.5379 50.021 11.2026 50.4755 12.0701C50.9339 12.9375 51.163 13.9754 51.163 15.1837C51.163 16.3958 50.9339 17.4375 50.4755 18.3087C50.021 19.1799 49.3676 19.8485 48.5153 20.3144C47.6668 20.7803 46.6517 21.0132 45.4699 21.0132ZM43.8051 18.9053H45.3676C46.0949 18.9053 46.7066 18.7765 47.2028 18.5189C47.7028 18.2576 48.0778 17.8542 48.3278 17.3087C48.5816 16.7595 48.7085 16.0511 48.7085 15.1837C48.7085 14.3239 48.5816 13.6212 48.3278 13.0757C48.0778 12.5303 47.7047 12.1288 47.2085 11.8712C46.7123 11.6136 46.1005 11.4848 45.3733 11.4848H43.8051V18.9053ZM54.3349 21.0132H51.6986L55.7156 9.37688H58.8861L62.8974 21.0132H60.2611L57.3463 12.036H57.2554L54.3349 21.0132ZM54.1701 16.4394H60.3974V18.3598H54.1701V16.4394ZM62.4329 11.4053V9.37688H71.9897V11.4053H68.4272V21.0132H65.9954V11.4053H62.4329ZM74.1474 21.0132H71.5111L75.5281 9.37688H78.6986L82.7099 21.0132H80.0736L77.1588 12.036H77.0679L74.1474 21.0132ZM73.9826 16.4394H80.2099V18.3598H73.9826V16.4394ZM93.8307 13.4507H91.342C91.2966 13.1288 91.2038 12.8428 91.0636 12.5928C90.9235 12.339 90.7435 12.1231 90.5238 11.9451C90.3041 11.767 90.0504 11.6307 89.7625 11.536C89.4784 11.4413 89.1697 11.3939 88.8363 11.3939C88.2341 11.3939 87.7094 11.5435 87.2625 11.8428C86.8155 12.1382 86.4689 12.5701 86.2227 13.1382C85.9765 13.7026 85.8534 14.3882 85.8534 15.1951C85.8534 16.0246 85.9765 16.7216 86.2227 17.286C86.4727 17.8504 86.8212 18.2765 87.2682 18.5644C87.7151 18.8523 88.2322 18.9962 88.8193 18.9962C89.1488 18.9962 89.4538 18.9526 89.7341 18.8655C90.0182 18.7784 90.27 18.6515 90.4897 18.4848C90.7094 18.3144 90.8913 18.1079 91.0352 17.8655C91.1829 17.6231 91.2852 17.3466 91.342 17.036L93.8307 17.0473C93.7663 17.5814 93.6053 18.0966 93.3477 18.5928C93.0939 19.0852 92.7511 19.5265 92.3193 19.9167C91.8913 20.303 91.3799 20.6098 90.7852 20.8371C90.1943 21.0606 89.5257 21.1723 88.7795 21.1723C87.7416 21.1723 86.8136 20.9375 85.9954 20.4678C85.181 19.9981 84.5371 19.3182 84.0636 18.428C83.5939 17.5379 83.3591 16.4602 83.3591 15.1951C83.3591 13.9261 83.5977 12.8466 84.075 11.9564C84.5522 11.0663 85.2 10.3882 86.0182 9.92234C86.8363 9.45264 87.7568 9.21779 88.7795 9.21779C89.4538 9.21779 90.0788 9.31249 90.6545 9.50188C91.2341 9.69127 91.7473 9.96779 92.1943 10.3314C92.6413 10.6913 93.0049 11.1326 93.2852 11.6553C93.5693 12.178 93.7511 12.7765 93.8307 13.4507ZM95.5949 21.0132V9.37688H103.436V11.4053H98.0551V14.178H103.032V16.2064H98.0551V18.9848H103.458V21.0132H95.5949ZM105.392 21.0132V9.37688H107.852V18.9848H112.841V21.0132H105.392ZM124.71 15.1951C124.71 16.464 124.469 17.5435 123.988 18.4337C123.511 19.3239 122.86 20.0038 122.034 20.4735C121.212 20.9394 120.288 21.1723 119.261 21.1723C118.227 21.1723 117.299 20.9375 116.477 20.4678C115.655 19.9981 115.005 19.3182 114.528 18.428C114.051 17.5379 113.812 16.4602 113.812 15.1951C113.812 13.9261 114.051 12.8466 114.528 11.9564C115.005 11.0663 115.655 10.3882 116.477 9.92234C117.299 9.45264 118.227 9.21779 119.261 9.21779C120.288 9.21779 121.212 9.45264 122.034 9.92234C122.86 10.3882 123.511 11.0663 123.988 11.9564C124.469 12.8466 124.71 13.9261 124.71 15.1951ZM122.216 15.1951C122.216 14.3731 122.092 13.6799 121.846 13.1155C121.604 12.5511 121.261 12.1231 120.818 11.8314C120.375 11.5398 119.856 11.3939 119.261 11.3939C118.666 11.3939 118.147 11.5398 117.704 11.8314C117.261 12.1231 116.916 12.5511 116.67 13.1155C116.428 13.6799 116.307 14.3731 116.307 15.1951C116.307 16.017 116.428 16.7102 116.67 17.2746C116.916 17.839 117.261 18.267 117.704 18.5587C118.147 18.8504 118.666 18.9962 119.261 18.9962C119.856 18.9962 120.375 18.8504 120.818 18.5587C121.261 18.267 121.604 17.839 121.846 17.2746C122.092 16.7102 122.216 16.017 122.216 15.1951ZM125.558 11.4053V9.37688H135.115V11.4053H131.552V21.0132H129.12V11.4053H125.558Z" fill="#07143D"/>
<defs>
<clipPath id="clip0_391_2794">
<path d="M0.65332 0.253235H18.5733C27.0564 0.253235 33.9333 7.13014 33.9333 15.6132V15.6132C33.9333 24.0963 27.0564 30.9732 18.5733 30.9732H0.65332V0.253235Z" fill="white"/>
</clipPath>
</defs>
</svg>
