<svg width="211" height="48" viewBox="0 0 211 48" fill="none" xmlns="http://www.w3.org/2000/svg">
<g clip-path="url(#clip0_55_486)">
<rect width="55.2727" height="14.5455" rx="7.27273" fill="#39E7BD"/>
<rect x="14.5455" y="16.7275" width="55.2727" height="14.5455" rx="7.27273" fill="#39E7BD"/>
<rect y="33.4541" width="55.2727" height="14.5455" rx="7.27273" fill="#39E7BD"/>
</g>
<path d="M70.0256 33H63.5803V14.8182H70.0788C71.9077 14.8182 73.482 15.1822 74.8018 15.9102C76.1217 16.6322 77.1367 17.6709 77.8469 19.0263C78.5631 20.3816 78.9212 22.0033 78.9212 23.8913C78.9212 25.7853 78.5631 27.4129 77.8469 28.7741C77.1367 30.1354 76.1158 31.18 74.7841 31.908C73.4583 32.636 71.8722 33 70.0256 33ZM67.4244 29.7063H69.8658C71.0021 29.7063 71.958 29.5051 72.7333 29.1026C73.5146 28.6942 74.1005 28.0639 74.4911 27.2116C74.8877 26.3535 75.0859 25.2467 75.0859 23.8913C75.0859 22.5478 74.8877 21.4499 74.4911 20.5977C74.1005 19.7454 73.5175 19.118 72.7422 18.7156C71.9669 18.3131 71.011 18.1119 69.8746 18.1119H67.4244V29.7063ZM83.8772 33H79.7579L86.0345 14.8182H90.9884L97.2561 33H93.1368L88.5825 18.973H88.4404L83.8772 33ZM83.6198 25.8533H93.3499V28.854H83.6198V25.8533ZM96.5304 17.9876V14.8182H111.463V17.9876H105.896V33H102.097V17.9876H96.5304ZM114.834 33H110.715L116.992 14.8182H121.945L128.213 33H124.094L119.54 18.973H119.397L114.834 33ZM114.577 25.8533H124.307V28.854H114.577V25.8533ZM145.589 21.1836H141.701C141.63 20.6805 141.485 20.2337 141.266 19.843C141.047 19.4465 140.766 19.1091 140.422 18.831C140.079 18.5528 139.683 18.3397 139.233 18.1918C138.789 18.0438 138.307 17.9698 137.786 17.9698C136.845 17.9698 136.025 18.2036 135.327 18.6712C134.628 19.1328 134.087 19.8075 133.702 20.6953C133.317 21.5772 133.125 22.6484 133.125 23.9091C133.125 25.2053 133.317 26.2943 133.702 27.1761C134.093 28.058 134.637 28.7238 135.335 29.1737C136.034 29.6235 136.842 29.8484 137.759 29.8484C138.274 29.8484 138.75 29.7803 139.188 29.6442C139.632 29.508 140.026 29.3098 140.369 29.0494C140.712 28.783 140.997 28.4605 141.221 28.0817C141.452 27.7029 141.612 27.2708 141.701 26.7855L145.589 26.8033C145.489 27.6378 145.237 28.4427 144.835 29.218C144.438 29.9875 143.903 30.677 143.228 31.2866C142.559 31.8903 141.76 32.3697 140.831 32.7248C139.907 33.074 138.863 33.2486 137.697 33.2486C136.075 33.2486 134.625 32.8816 133.347 32.1477C132.074 31.4138 131.068 30.3514 130.328 28.9606C129.594 27.5697 129.227 25.8859 129.227 23.9091C129.227 21.9264 129.6 20.2396 130.346 18.8487C131.092 17.4579 132.104 16.3984 133.382 15.6705C134.661 14.9366 136.099 14.5696 137.697 14.5696C138.75 14.5696 139.727 14.7176 140.627 15.0135C141.532 15.3094 142.334 15.7415 143.032 16.3097C143.731 16.8719 144.299 17.5614 144.737 18.3782C145.181 19.195 145.465 20.1301 145.589 21.1836ZM148.346 33V14.8182H160.597V17.9876H152.19V22.32H159.967V25.4893H152.19V29.8306H160.633V33H148.346ZM163.653 33V14.8182H167.498V29.8306H175.292V33H163.653ZM193.838 23.9091C193.838 25.8918 193.462 27.5786 192.711 28.9695C191.965 30.3603 190.947 31.4227 189.657 32.1566C188.372 32.8846 186.928 33.2486 185.324 33.2486C183.709 33.2486 182.258 32.8816 180.974 32.1477C179.69 31.4138 178.675 30.3514 177.929 28.9606C177.183 27.5697 176.81 25.8859 176.81 23.9091C176.81 21.9264 177.183 20.2396 177.929 18.8487C178.675 17.4579 179.69 16.3984 180.974 15.6705C182.258 14.9366 183.709 14.5696 185.324 14.5696C186.928 14.5696 188.372 14.9366 189.657 15.6705C190.947 16.3984 191.965 17.4579 192.711 18.8487C193.462 20.2396 193.838 21.9264 193.838 23.9091ZM189.941 23.9091C189.941 22.6248 189.748 21.5417 189.364 20.6598C188.985 19.7779 188.449 19.1091 187.757 18.6534C187.064 18.1977 186.254 17.9698 185.324 17.9698C184.395 17.9698 183.584 18.1977 182.892 18.6534C182.199 19.1091 181.661 19.7779 181.276 20.6598C180.897 21.5417 180.708 22.6248 180.708 23.9091C180.708 25.1934 180.897 26.2765 181.276 27.1584C181.661 28.0402 182.199 28.709 182.892 29.1648C183.584 29.6205 184.395 29.8484 185.324 29.8484C186.254 29.8484 187.064 29.6205 187.757 29.1648C188.449 28.709 188.985 28.0402 189.364 27.1584C189.748 26.2765 189.941 25.1934 189.941 23.9091ZM195.163 17.9876V14.8182H210.096V17.9876H204.529V33H200.73V17.9876H195.163Z" fill="#EAECF0"/>
<defs>
<clipPath id="clip0_55_486">
<path d="M0 0H28C41.2548 0 52 10.7452 52 24C52 37.2548 41.2548 48 28 48H0V0Z" fill="white"/>
</clipPath>
</defs>
</svg>
