<svg width="121" height="28" viewBox="0 0 121 28" fill="none" xmlns="http://www.w3.org/2000/svg">
<g clip-path="url(#clip0_391_3088)">
<rect x="0.65332" y="0.0400391" width="31.444" height="8.27475" rx="4.13737" fill="#39E7BD"/>
<rect x="8.92822" y="9.55566" width="31.444" height="8.27475" rx="4.13737" fill="#39E7BD"/>
<rect x="0.65332" y="19.0713" width="31.444" height="8.27475" rx="4.13737" fill="#39E7BD"/>
</g>
<path d="M40.49 19.1602H36.8233V8.81672H40.5203C41.5607 8.81672 42.4563 9.02379 43.2071 9.43793C43.958 9.84871 44.5354 10.4396 44.9395 11.2107C45.3469 11.9817 45.5506 12.9043 45.5506 13.9783C45.5506 15.0558 45.3469 15.9817 44.9395 16.7561C44.5354 17.5305 43.9546 18.1248 43.197 18.5389C42.4428 18.9531 41.5405 19.1602 40.49 19.1602ZM39.0102 17.2864H40.3991C41.0455 17.2864 41.5893 17.1719 42.0304 16.943C42.4748 16.7107 42.8082 16.3521 43.0304 15.8672C43.256 15.379 43.3688 14.7494 43.3688 13.9783C43.3688 13.214 43.256 12.5894 43.0304 12.1046C42.8082 11.6198 42.4765 11.2628 42.0354 11.0339C41.5944 10.8049 41.0506 10.6905 40.4041 10.6905H39.0102V17.2864ZM48.37 19.1602H46.0266L49.5973 8.81672H52.4155L55.9811 19.1602H53.6377L51.0468 11.1804H50.966L48.37 19.1602ZM48.2236 15.0945H53.7589V16.8016H48.2236V15.0945ZM55.5683 10.6198V8.81672H64.0632V10.6198H60.8965V19.1602H58.7349V10.6198H55.5683ZM65.9811 19.1602H63.6377L67.2084 8.81672H70.0266L73.5922 19.1602H71.2488L68.6579 11.1804H68.5771L65.9811 19.1602ZM65.8347 15.0945H71.37V16.8016H65.8347V15.0945ZM83.4773 12.4379H81.2652C81.2248 12.1517 81.1423 11.8975 81.0178 11.6753C80.8932 11.4497 80.7332 11.2578 80.538 11.0995C80.3427 10.9413 80.1171 10.8201 79.8612 10.7359C79.6087 10.6517 79.3343 10.6097 79.038 10.6097C78.5026 10.6097 78.0363 10.7426 77.639 11.0086C77.2417 11.2713 76.9336 11.6551 76.7147 12.1602C76.4959 12.6618 76.3864 13.2713 76.3864 13.9884C76.3864 14.7258 76.4959 15.3453 76.7147 15.847C76.9369 16.3487 77.2467 16.7275 77.644 16.9834C78.0413 17.2393 78.5009 17.3672 79.0228 17.3672C79.3157 17.3672 79.5868 17.3285 79.8359 17.2511C80.0885 17.1736 80.3124 17.0608 80.5077 16.9127C80.7029 16.7612 80.8646 16.5777 80.9925 16.3622C81.1238 16.1467 81.2147 15.9009 81.2652 15.6248L83.4773 15.6349C83.4201 16.1097 83.277 16.5676 83.0481 17.0086C82.8225 17.4464 82.5178 17.8386 82.1339 18.1854C81.7534 18.5288 81.2989 18.8016 80.7703 19.0036C80.245 19.2022 79.6507 19.3016 78.9874 19.3016C78.0649 19.3016 77.24 19.0928 76.5127 18.6753C75.7888 18.2578 75.2164 17.6534 74.7955 16.8622C74.378 16.0709 74.1693 15.113 74.1693 13.9884C74.1693 12.8605 74.3814 11.9009 74.8056 11.1097C75.2299 10.3184 75.8056 9.71571 76.5329 9.30157C77.2602 8.88406 78.0784 8.67531 78.9874 8.67531C79.5868 8.67531 80.1423 8.75948 80.6541 8.92783C81.1693 9.09618 81.6255 9.34197 82.0228 9.66521C82.4201 9.98507 82.7433 10.3773 82.9925 10.842C83.245 11.3066 83.4066 11.8386 83.4773 12.4379ZM85.0455 19.1602V8.81672H92.0152V10.6198H87.2324V13.0844H91.6566V14.8874H87.2324V17.3571H92.0354V19.1602H85.0455ZM93.7539 19.1602V8.81672H95.9407V17.3571H100.375V19.1602H93.7539ZM110.926 13.9884C110.926 15.1164 110.712 16.076 110.284 16.8672C109.86 17.6585 109.281 18.2628 108.547 18.6804C107.816 19.0945 106.995 19.3016 106.082 19.3016C105.163 19.3016 104.338 19.0928 103.607 18.6753C102.877 18.2578 102.299 17.6534 101.875 16.8622C101.451 16.0709 101.239 15.113 101.239 13.9884C101.239 12.8605 101.451 11.9009 101.875 11.1097C102.299 10.3184 102.877 9.71571 103.607 9.30157C104.338 8.88406 105.163 8.67531 106.082 8.67531C106.995 8.67531 107.816 8.88406 108.547 9.30157C109.281 9.71571 109.86 10.3184 110.284 11.1097C110.712 11.9009 110.926 12.8605 110.926 13.9884ZM108.708 13.9884C108.708 13.2578 108.599 12.6416 108.38 12.14C108.165 11.6383 107.86 11.2578 107.466 10.9985C107.072 10.7393 106.611 10.6097 106.082 10.6097C105.554 10.6097 105.092 10.7393 104.698 10.9985C104.304 11.2578 103.998 11.6383 103.779 12.14C103.564 12.6416 103.456 13.2578 103.456 13.9884C103.456 14.7191 103.564 15.3352 103.779 15.8369C103.998 16.3386 104.304 16.7191 104.698 16.9783C105.092 17.2376 105.554 17.3672 106.082 17.3672C106.611 17.3672 107.072 17.2376 107.466 16.9783C107.86 16.7191 108.165 16.3386 108.38 15.8369C108.599 15.3352 108.708 14.7191 108.708 13.9884ZM111.679 10.6198V8.81672H120.174V10.6198H117.008V19.1602H114.846V10.6198H111.679Z" fill="#EAECF0"/>
<defs>
<clipPath id="clip0_391_3088">
<path d="M0.65332 0.0400391H16.5822C24.1227 0.0400391 30.2355 6.15285 30.2355 13.6934V13.6934C30.2355 21.2339 24.1227 27.3467 16.5822 27.3467H0.65332V0.0400391Z" fill="white"/>
</clipPath>
</defs>
</svg>
