<svg width="55" height="56" viewBox="0 0 55 56" fill="none" xmlns="http://www.w3.org/2000/svg">
<g filter="url(#filter0_d_328_1179)">
<rect x="1.5" y="2" width="50" height="50" rx="8" fill="#39C6A4" fill-opacity="0.07" shape-rendering="crispEdges"/>
<rect x="1.5" y="2" width="50" height="50" rx="8" stroke="#39E7BD" stroke-width="0.5" stroke-linecap="round" shape-rendering="crispEdges"/>
<g clip-path="url(#clip0_328_1179)">
<path d="M21.5 25.75C23.1576 25.75 24.7473 25.0915 25.9194 23.9194C27.0915 22.7473 27.75 21.1576 27.75 19.5C27.75 17.8424 27.0915 16.2527 25.9194 15.0806C24.7473 13.9085 23.1576 13.25 21.5 13.25C19.8424 13.25 18.2527 13.9085 17.0806 15.0806C15.9085 16.2527 15.25 17.8424 15.25 19.5C15.25 21.1576 15.9085 22.7473 17.0806 23.9194C18.2527 25.0915 19.8424 25.75 21.5 25.75ZM21.5 25.75C24.0163 25.75 26.215 26.7 27.7787 28.2787C28.7061 29.2186 29.3997 30.3631 29.8037 31.62M21.5 25.75C16.5 25.75 12.75 29.5 12.75 34.5V40.75H25.25M26.5 35.53L31.7375 39.5L40.25 28.25" stroke="#39E7BD" stroke-width="2"/>
</g>
</g>
<defs>
<filter id="filter0_d_328_1179" x="0.25" y="0.75" width="54.5" height="54.5" filterUnits="userSpaceOnUse" color-interpolation-filters="sRGB">
<feFlood flood-opacity="0" result="BackgroundImageFix"/>
<feColorMatrix in="SourceAlpha" type="matrix" values="0 0 0 0 0 0 0 0 0 0 0 0 0 0 0 0 0 0 127 0" result="hardAlpha"/>
<feOffset dx="1" dy="1"/>
<feGaussianBlur stdDeviation="1"/>
<feComposite in2="hardAlpha" operator="out"/>
<feColorMatrix type="matrix" values="0 0 0 0 0.5375 0 0 0 0 0.452396 0 0 0 0 0.452396 0 0 0 0.25 0"/>
<feBlend mode="normal" in2="BackgroundImageFix" result="effect1_dropShadow_328_1179"/>
<feBlend mode="normal" in="SourceGraphic" in2="effect1_dropShadow_328_1179" result="shape"/>
</filter>
<clipPath id="clip0_328_1179">
<rect width="30" height="30" fill="white" transform="translate(11.5 12)"/>
</clipPath>
</defs>
</svg>
