<svg width="55" height="56" viewBox="0 0 55 56" fill="none" xmlns="http://www.w3.org/2000/svg">
<g filter="url(#filter0_d_328_546)">
<rect x="1.5" y="2" width="50" height="50" rx="8" fill="#39C6A4" fill-opacity="0.07" shape-rendering="crispEdges"/>
<rect x="1.5" y="2" width="50" height="50" rx="8" stroke="#39E7BD" stroke-width="0.5" stroke-linecap="round" shape-rendering="crispEdges"/>
<path d="M20.8438 37C19.3004 37 17.9825 36.4533 16.89 35.36C15.7967 34.2675 15.25 32.9496 15.25 31.4062C15.25 29.8871 15.7808 28.5846 16.8425 27.4987C17.9042 26.4129 19.1946 25.8533 20.7137 25.82C20.8737 25.82 21.0342 25.8321 21.195 25.8562C21.3558 25.8804 21.5158 25.9083 21.675 25.94L17.5575 17.6725H23.52L26.5 23.635L29.4813 17.6725H35.4425L31.355 25.8537C31.5 25.8212 31.6483 25.7971 31.8 25.7812C31.9517 25.7654 32.1079 25.7571 32.2687 25.7562C33.7996 25.7954 35.0958 26.3579 36.1575 27.4437C37.2192 28.5296 37.75 29.84 37.75 31.375C37.75 32.9392 37.2033 34.2675 36.11 35.36C35.0175 36.4533 33.6892 37 32.125 37C31.8892 37 31.6483 36.9867 31.4025 36.96C31.1567 36.9342 30.9237 36.8842 30.7037 36.81C31.6896 36.3808 32.3813 35.6517 32.7788 34.6225C33.1763 33.5933 33.375 32.5108 33.375 31.375C33.375 29.4567 32.7087 27.8312 31.3762 26.4987C30.0429 25.1662 28.4175 24.5 26.5 24.5C24.5825 24.5 22.9571 25.1662 21.6237 26.4987C20.2904 27.8312 19.6242 29.4567 19.625 31.375C19.625 32.5192 19.8083 33.62 20.175 34.6775C20.5417 35.7358 21.2458 36.4467 22.2875 36.81C22.0525 36.8842 21.8158 36.9342 21.5775 36.96C21.3392 36.9858 21.0938 36.9992 20.8438 37ZM26.5 37C24.9375 37 23.6096 36.4533 22.5162 35.36C21.4229 34.2667 20.8758 32.9383 20.875 31.375C20.8742 29.8117 21.4212 28.4837 22.5162 27.3912C23.6112 26.2987 24.9392 25.7517 26.5 25.75C28.0608 25.7483 29.3892 26.2954 30.485 27.3912C31.5808 28.4871 32.1275 29.815 32.125 31.375C32.1225 32.935 31.5758 34.2633 30.485 35.36C29.3942 36.4567 28.0658 37.0033 26.5 37ZM24.5475 34.235L26.5 32.75L28.4525 34.235L27.7213 31.825L29.6725 30.4325H27.2625L26.5 27.89L25.7375 30.4325H23.3275L25.2787 31.825L24.5475 34.235Z" fill="#39E7BD"/>
</g>
<defs>
<filter id="filter0_d_328_546" x="0.25" y="0.75" width="54.5" height="54.5" filterUnits="userSpaceOnUse" color-interpolation-filters="sRGB">
<feFlood flood-opacity="0" result="BackgroundImageFix"/>
<feColorMatrix in="SourceAlpha" type="matrix" values="0 0 0 0 0 0 0 0 0 0 0 0 0 0 0 0 0 0 127 0" result="hardAlpha"/>
<feOffset dx="1" dy="1"/>
<feGaussianBlur stdDeviation="1"/>
<feComposite in2="hardAlpha" operator="out"/>
<feColorMatrix type="matrix" values="0 0 0 0 0.5375 0 0 0 0 0.452396 0 0 0 0 0.452396 0 0 0 0.25 0"/>
<feBlend mode="normal" in2="BackgroundImageFix" result="effect1_dropShadow_328_546"/>
<feBlend mode="normal" in="SourceGraphic" in2="effect1_dropShadow_328_546" result="shape"/>
</filter>
</defs>
</svg>
