<svg width="56" height="56" viewBox="0 0 56 56" fill="none" xmlns="http://www.w3.org/2000/svg">
<g filter="url(#filter0_d_328_879)">
<rect x="2" y="2" width="50" height="50" rx="8" fill="#39C6A4" fill-opacity="0.07" shape-rendering="crispEdges"/>
<rect x="2" y="2" width="50" height="50" rx="8" stroke="#39E7BD" stroke-width="0.5" stroke-linecap="round" shape-rendering="crispEdges"/>
<path d="M40.125 38.8125L37.5 36.1875C37.9688 35.4375 38.25 34.5 38.25 33.5625C38.25 30.9375 36.1875 28.875 33.5625 28.875C30.9375 28.875 28.875 30.9375 28.875 33.5625C28.875 36.1875 30.9375 38.25 33.5625 38.25C34.5 38.25 35.4375 37.9688 36.1875 37.5L38.8125 40.125L40.125 38.8125ZM30.75 33.5625C30.75 31.9688 31.9688 30.75 33.5625 30.75C35.1562 30.75 36.375 31.9688 36.375 33.5625C36.375 35.1562 35.1562 36.375 33.5625 36.375C31.9688 36.375 30.75 35.1562 30.75 33.5625ZM19.5 27H28.875V28.875H19.5V27ZM19.5 21.375H30.75V23.25H19.5V21.375Z" fill="#39E7BD"/>
<path d="M25.125 37.9688L20.25 35.3438C17.4375 33.9375 15.75 31.0312 15.75 27.9375V15.75H34.5V26.0625H36.375V15.75C36.375 14.7188 35.5312 13.875 34.5 13.875H15.75C14.7188 13.875 13.875 14.7188 13.875 15.75V27.9375C13.875 31.7812 15.9375 35.25 19.3125 37.0312L25.125 40.125V37.9688Z" fill="#39E7BD"/>
</g>
<defs>
<filter id="filter0_d_328_879" x="0.75" y="0.75" width="54.5" height="54.5" filterUnits="userSpaceOnUse" color-interpolation-filters="sRGB">
<feFlood flood-opacity="0" result="BackgroundImageFix"/>
<feColorMatrix in="SourceAlpha" type="matrix" values="0 0 0 0 0 0 0 0 0 0 0 0 0 0 0 0 0 0 127 0" result="hardAlpha"/>
<feOffset dx="1" dy="1"/>
<feGaussianBlur stdDeviation="1"/>
<feComposite in2="hardAlpha" operator="out"/>
<feColorMatrix type="matrix" values="0 0 0 0 0.5375 0 0 0 0 0.452396 0 0 0 0 0.452396 0 0 0 0.25 0"/>
<feBlend mode="normal" in2="BackgroundImageFix" result="effect1_dropShadow_328_879"/>
<feBlend mode="normal" in="SourceGraphic" in2="effect1_dropShadow_328_879" result="shape"/>
</filter>
</defs>
</svg>
