<svg width="105" height="18" viewBox="0 0 105 18" fill="none" xmlns="http://www.w3.org/2000/svg">
<g clip-path="url(#clip0_50_1054)">
<g clip-path="url(#clip1_50_1054)">
<path d="M8.87811 1.4421C9.03111 1.07423 9.55224 1.07423 9.70525 1.4421L11.5561 5.89213C11.6206 6.04721 11.7665 6.15318 11.9339 6.1666L16.7381 6.55175C17.1352 6.58359 17.2963 7.07921 16.9937 7.33841L13.3334 10.4738C13.2058 10.5831 13.1501 10.7546 13.1891 10.9179L14.3074 15.606C14.3998 15.9935 13.9782 16.2999 13.6382 16.0922L9.52516 13.5799C9.38181 13.4924 9.20154 13.4924 9.0582 13.5799L4.94515 16.0922C4.60513 16.2999 4.18353 15.9935 4.27598 15.606L5.39425 10.9179C5.43322 10.7546 5.37751 10.5831 5.24995 10.4738L1.58967 7.33841C1.28709 7.07921 1.44812 6.58359 1.84527 6.55175L6.64946 6.1666C6.81688 6.15318 6.96273 6.04721 7.02723 5.89213L8.87811 1.4421Z" fill="#FEC84B"/>
</g>
</g>
<g clip-path="url(#clip2_50_1054)">
<g clip-path="url(#clip3_50_1054)">
<path d="M30.3781 1.4421C30.5311 1.07423 31.0522 1.07423 31.2052 1.4421L33.0561 5.89213C33.1206 6.04721 33.2665 6.15318 33.4339 6.1666L38.2381 6.55175C38.6352 6.58359 38.7963 7.07921 38.4937 7.33841L34.8334 10.4738C34.7058 10.5831 34.6501 10.7546 34.6891 10.9179L35.8074 15.606C35.8998 15.9935 35.4782 16.2999 35.1382 16.0922L31.0252 13.5799C30.8818 13.4924 30.7015 13.4924 30.5582 13.5799L26.4451 16.0922C26.1051 16.2999 25.6835 15.9935 25.776 15.606L26.8943 10.9179C26.9332 10.7546 26.8775 10.5831 26.75 10.4738L23.0897 7.33841C22.7871 7.07921 22.9481 6.58359 23.3453 6.55175L28.1495 6.1666C28.3169 6.15318 28.4627 6.04721 28.5272 5.89213L30.3781 1.4421Z" fill="#FEC84B"/>
</g>
</g>
<g clip-path="url(#clip4_50_1054)">
<g clip-path="url(#clip5_50_1054)">
<path d="M51.8781 1.4421C52.0311 1.07423 52.5522 1.07423 52.7052 1.4421L54.5561 5.89213C54.6206 6.04721 54.7664 6.15318 54.9339 6.1666L59.7381 6.55175C60.1352 6.58359 60.2962 7.07921 59.9937 7.33841L56.3334 10.4738C56.2058 10.5831 56.1501 10.7546 56.1891 10.9179L57.3073 15.606C57.3998 15.9935 56.9782 16.2999 56.6382 16.0922L52.5251 13.5799C52.3818 13.4924 52.2015 13.4924 52.0582 13.5799L47.9451 16.0922C47.6051 16.2999 47.1835 15.9935 47.2759 15.606L48.3942 10.9179C48.4332 10.7546 48.3775 10.5831 48.2499 10.4738L44.5896 7.33841C44.2871 7.07921 44.4481 6.58359 44.8452 6.55175L49.6494 6.1666C49.8169 6.15318 49.9627 6.04721 50.0272 5.89213L51.8781 1.4421Z" fill="#FEC84B"/>
</g>
</g>
<g clip-path="url(#clip6_50_1054)">
<g clip-path="url(#clip7_50_1054)">
<path d="M73.3781 1.4421C73.5311 1.07423 74.0522 1.07423 74.2052 1.4421L76.0561 5.89213C76.1206 6.04721 76.2664 6.15318 76.4339 6.1666L81.2381 6.55175C81.6352 6.58359 81.7962 7.07921 81.4937 7.33841L77.8334 10.4738C77.7058 10.5831 77.6501 10.7546 77.6891 10.9179L78.8073 15.606C78.8998 15.9935 78.4782 16.2999 78.1382 16.0922L74.0251 13.5799C73.8818 13.4924 73.7015 13.4924 73.5582 13.5799L69.4451 16.0922C69.1051 16.2999 68.6835 15.9935 68.7759 15.606L69.8942 10.9179C69.9332 10.7546 69.8775 10.5831 69.7499 10.4738L66.0896 7.33841C65.7871 7.07921 65.9481 6.58359 66.3452 6.55175L71.1494 6.1666C71.3169 6.15318 71.4627 6.04721 71.5272 5.89213L73.3781 1.4421Z" fill="#FEC84B"/>
</g>
</g>
<g clip-path="url(#clip8_50_1054)">
<g clip-path="url(#clip9_50_1054)">
<path d="M94.8781 1.4421C95.0311 1.07423 95.5522 1.07423 95.7052 1.4421L97.5561 5.89213C97.6206 6.04721 97.7664 6.15318 97.9339 6.1666L102.738 6.55175C103.135 6.58359 103.296 7.07921 102.994 7.33841L99.3334 10.4738C99.2058 10.5831 99.1501 10.7546 99.1891 10.9179L100.307 15.606C100.4 15.9935 99.9782 16.2999 99.6382 16.0922L95.5251 13.5799C95.3818 13.4924 95.2015 13.4924 95.0582 13.5799L90.9451 16.0922C90.6051 16.2999 90.1835 15.9935 90.2759 15.606L91.3942 10.9179C91.4332 10.7546 91.3775 10.5831 91.2499 10.4738L87.5896 7.33841C87.2871 7.07921 87.4481 6.58359 87.8452 6.55175L92.6494 6.1666C92.8169 6.15318 92.9627 6.04721 93.0272 5.89213L94.8781 1.4421Z" fill="#FEC84B"/>
</g>
</g>
<defs>
<clipPath id="clip0_50_1054">
<rect width="17.9167" height="17.9167" fill="white" transform="translate(0.333344)"/>
</clipPath>
<clipPath id="clip1_50_1054">
<rect width="17.9167" height="17.9167" fill="white" transform="translate(0.333344)"/>
</clipPath>
<clipPath id="clip2_50_1054">
<rect width="17.9167" height="17.9167" fill="white" transform="translate(21.8333)"/>
</clipPath>
<clipPath id="clip3_50_1054">
<rect width="17.9167" height="17.9167" fill="white" transform="translate(21.8333)"/>
</clipPath>
<clipPath id="clip4_50_1054">
<rect width="17.9167" height="17.9167" fill="white" transform="translate(43.3333)"/>
</clipPath>
<clipPath id="clip5_50_1054">
<rect width="17.9167" height="17.9167" fill="white" transform="translate(43.3333)"/>
</clipPath>
<clipPath id="clip6_50_1054">
<rect width="17.9167" height="17.9167" fill="white" transform="translate(64.8333)"/>
</clipPath>
<clipPath id="clip7_50_1054">
<rect width="17.9167" height="17.9167" fill="white" transform="translate(64.8333)"/>
</clipPath>
<clipPath id="clip8_50_1054">
<rect width="17.9167" height="17.9167" fill="white" transform="translate(86.3333)"/>
</clipPath>
<clipPath id="clip9_50_1054">
<rect width="17.9167" height="17.9167" fill="white" transform="translate(86.3333)"/>
</clipPath>
</defs>
</svg>
