<svg width="151" height="130" viewBox="0 0 151 130" fill="none" xmlns="http://www.w3.org/2000/svg">
<g opacity="0.8">
<circle cx="5.77273" cy="5.77273" r="5.77273" fill="#D9D9D9"/>
<circle cx="28.8636" cy="5.77273" r="5.77273" fill="#D9D9D9"/>
<circle cx="51.9546" cy="5.77273" r="5.77273" fill="#D9D9D9"/>
<circle cx="75.0454" cy="5.77273" r="5.77273" fill="#D9D9D9"/>
<circle cx="98.1364" cy="5.77273" r="5.77273" fill="#D9D9D9"/>
<circle cx="121.227" cy="5.77273" r="5.77273" fill="#D9D9D9"/>
<circle cx="144.318" cy="5.77273" r="5.77273" fill="#D9D9D9"/>
<circle cx="5.77273" cy="29.3181" r="5.77273" fill="#D9D9D9"/>
<circle cx="28.8636" cy="29.3181" r="5.77273" fill="#D9D9D9"/>
<circle cx="51.9546" cy="29.3181" r="5.77273" fill="#D9D9D9"/>
<circle cx="75.0454" cy="29.3181" r="5.77273" fill="#D9D9D9"/>
<circle cx="98.1364" cy="29.3181" r="5.77273" fill="#D9D9D9"/>
<circle cx="121.227" cy="29.3181" r="5.77273" fill="#D9D9D9"/>
<circle cx="144.318" cy="29.3181" r="5.77273" fill="#D9D9D9"/>
<circle cx="5.77273" cy="52.8637" r="5.77273" fill="#D9D9D9"/>
<circle cx="28.8636" cy="52.8637" r="5.77273" fill="#D9D9D9"/>
<circle cx="51.9546" cy="52.8637" r="5.77273" fill="#D9D9D9"/>
<circle cx="75.0454" cy="52.8637" r="5.77273" fill="#D9D9D9"/>
<circle cx="98.1364" cy="52.8637" r="5.77273" fill="#D9D9D9"/>
<circle cx="121.227" cy="52.8637" r="5.77273" fill="#D9D9D9"/>
<circle cx="144.318" cy="52.8637" r="5.77273" fill="#D9D9D9"/>
<circle cx="5.77273" cy="76.4091" r="5.77273" fill="#D9D9D9"/>
<circle cx="28.8636" cy="76.4091" r="5.77273" fill="#D9D9D9"/>
<circle cx="51.9546" cy="76.4091" r="5.77273" fill="#D9D9D9"/>
<circle cx="75.0454" cy="76.4091" r="5.77273" fill="#D9D9D9"/>
<circle cx="98.1364" cy="76.4091" r="5.77273" fill="#D9D9D9"/>
<circle cx="121.227" cy="76.4091" r="5.77273" fill="#D9D9D9"/>
<circle cx="144.318" cy="76.4091" r="5.77273" fill="#D9D9D9"/>
<circle cx="5.77273" cy="99.9546" r="5.77273" fill="#D9D9D9"/>
<circle cx="28.8636" cy="99.9546" r="5.77273" fill="#D9D9D9"/>
<circle cx="51.9546" cy="99.9546" r="5.77273" fill="#D9D9D9"/>
<circle cx="75.0454" cy="99.9546" r="5.77273" fill="#D9D9D9"/>
<circle cx="98.1364" cy="99.9546" r="5.77273" fill="#D9D9D9"/>
<circle cx="121.227" cy="99.9546" r="5.77273" fill="#D9D9D9"/>
<circle cx="144.318" cy="99.9546" r="5.77273" fill="#D9D9D9"/>
<circle cx="5.77273" cy="123.5" r="5.77273" fill="#D9D9D9"/>
<circle cx="28.8636" cy="123.5" r="5.77273" fill="#D9D9D9"/>
<circle cx="51.9546" cy="123.5" r="5.77273" fill="#D9D9D9"/>
<circle cx="75.0454" cy="123.5" r="5.77273" fill="#D9D9D9"/>
<circle cx="98.1364" cy="123.5" r="5.77273" fill="#D9D9D9"/>
<circle cx="121.227" cy="123.5" r="5.77273" fill="#D9D9D9"/>
<circle cx="144.318" cy="123.5" r="5.77273" fill="#D9D9D9"/>
</g>
</svg>
