<svg width="56" height="56" viewBox="0 0 56 56" fill="none" xmlns="http://www.w3.org/2000/svg">
<rect x="4" y="4" width="48" height="48" rx="24" fill="#5B718F"/>
<rect x="4" y="4" width="48" height="48" rx="24" stroke="#1D2B54" stroke-width="8"/>
<path d="M24.3803 24.8534C25.0763 26.303 26.0251 27.6616 27.2266 28.8632C28.4282 30.0648 29.7869 31.0136 31.2365 31.7096C31.3612 31.7694 31.4235 31.7994 31.5024 31.8224C31.7828 31.9041 32.127 31.8454 32.3644 31.6754C32.4313 31.6275 32.4884 31.5704 32.6027 31.4561C32.9523 31.1064 33.1271 30.9316 33.3029 30.8174C33.9658 30.3864 34.8204 30.3864 35.4833 30.8174C35.6591 30.9316 35.8339 31.1064 36.1835 31.4561L36.3783 31.6509C36.9098 32.1824 37.1755 32.4481 37.3198 32.7335C37.6069 33.301 37.6069 33.9713 37.3198 34.5389C37.1755 34.8242 36.9098 35.09 36.3783 35.6214L36.2207 35.779C35.6911 36.3087 35.4263 36.5735 35.0662 36.7757C34.6667 37.0001 34.0462 37.1615 33.588 37.1601C33.1751 37.1589 32.8928 37.0788 32.3284 36.9186C29.295 36.0576 26.4326 34.4332 24.0447 32.0452C21.6567 29.6572 20.0322 26.7948 19.1712 23.7614C19.011 23.197 18.9309 22.9148 18.9297 22.5018C18.9283 22.0436 19.0897 21.4231 19.3141 21.0236C19.5164 20.6636 19.7812 20.3988 20.3108 19.8691L20.4684 19.7115C20.9999 19.1801 21.2656 18.9143 21.551 18.77C22.1185 18.4829 22.7888 18.4829 23.3564 18.77C23.6417 18.9143 23.9075 19.1801 24.4389 19.7115L24.6338 19.9064C24.9834 20.256 25.1582 20.4308 25.2725 20.6066C25.7035 21.2694 25.7035 22.124 25.2725 22.7869C25.1582 22.9627 24.9834 23.1375 24.6338 23.4871C24.5195 23.6014 24.4623 23.6586 24.4145 23.7254C24.2445 23.9628 24.1858 24.3071 24.2675 24.5874C24.2905 24.6663 24.3204 24.7287 24.3803 24.8534Z" stroke="white" stroke-width="2" stroke-linecap="round" stroke-linejoin="round"/>
</svg>
