<svg width="56" height="56" viewBox="0 0 56 56" fill="none" xmlns="http://www.w3.org/2000/svg">
<rect x="4" y="4" width="48" height="48" rx="24" fill="#5B718F"/>
<rect x="4" y="4" width="48" height="48" rx="24" stroke="#1D2B54" stroke-width="8"/>
<path d="M18 23L26.1649 28.7154C26.8261 29.1783 27.1567 29.4097 27.5163 29.4993C27.8339 29.5785 28.1661 29.5785 28.4837 29.4993C28.8433 29.4097 29.1739 29.1783 29.8351 28.7154L38 23M22.8 36H33.2C34.8802 36 35.7202 36 36.362 35.673C36.9265 35.3854 37.3854 34.9265 37.673 34.362C38 33.7202 38 32.8802 38 31.2V24.8C38 23.1198 38 22.2798 37.673 21.638C37.3854 21.0735 36.9265 20.6146 36.362 20.327C35.7202 20 34.8802 20 33.2 20H22.8C21.1198 20 20.2798 20 19.638 20.327C19.0735 20.6146 18.6146 21.0735 18.327 21.638C18 22.2798 18 23.1198 18 24.8V31.2C18 32.8802 18 33.7202 18.327 34.362C18.6146 34.9265 19.0735 35.3854 19.638 35.673C20.2798 36 21.1198 36 22.8 36Z" stroke="white" stroke-width="2" stroke-linecap="round" stroke-linejoin="round"/>
</svg>
