<svg width="30" height="30" viewBox="0 0 30 30" fill="none" xmlns="http://www.w3.org/2000/svg">
<path d="M7.11362 1.073C3.71635 2.04343 1.36792 4.0972 1.3678 6.48003C1.36762 8.85413 3.70012 10.9107 7.077 11.8853C5.10514 10.5959 3.84145 8.64952 3.84157 6.48003C3.84157 4.29817 5.12178 2.36224 7.11362 1.073ZM23.3166 1.073C25.3085 2.36224 26.5887 4.29817 26.5887 6.48003C26.589 8.64952 25.3253 10.5959 23.3533 11.8853C26.7302 10.9107 29.0627 8.85413 29.0625 6.48003C29.0624 4.0972 26.7139 2.04343 23.3166 1.073ZM9.56717 2.44075C7.02989 3.16544 5.27723 4.70042 5.27706 6.48009C5.27694 8.25314 7.0177 9.78958 9.53975 10.5175C8.067 9.55462 7.12276 8.10026 7.12276 6.48009C7.12276 4.85042 8.07948 3.40374 9.56729 2.44075H9.56717ZM20.863 2.44075C22.3507 3.40374 23.3075 4.85042 23.3075 6.48009C23.3075 8.10021 22.3633 9.55462 20.8905 10.5175C23.4126 9.78958 25.1533 8.25319 25.1532 6.48009C25.153 4.70042 23.4004 3.16544 20.863 2.44075ZM14.9433 2.83995C13.5688 3.01731 12.3523 4.59929 12.3523 6.62833C12.3523 7.74712 12.741 8.73811 13.3154 9.42618L13.9142 10.144L12.9949 10.3161C12.2429 10.4567 11.6893 10.8546 11.2224 11.4916C10.7557 12.1286 10.4021 13.0094 10.155 14.0203C9.70223 15.873 9.60643 18.1318 9.5929 20.1105H12.0336L12.0702 20.6176L12.6928 28.9013H17.9864L18.5357 20.6213L18.5705 20.1105H20.8922C20.8912 18.1094 20.8704 15.8195 20.4601 13.9525C20.2364 12.9348 19.8969 12.0546 19.4237 11.4239C18.9505 10.7931 18.3696 10.3979 17.5285 10.2684L16.591 10.1237L17.1843 9.38399C17.7339 8.6995 18.1036 7.71993 18.1036 6.62833C18.1036 4.46505 16.7399 2.84528 15.227 2.84528C15.0629 2.84528 14.963 2.83726 14.9432 2.83983L14.9433 2.83995ZM11.9293 3.55216C10.0907 4.07739 8.82016 5.19044 8.82016 6.48009C8.82016 7.76487 10.0817 8.87862 11.9092 9.40602C10.8421 8.70829 10.1587 7.65419 10.1587 6.48009C10.1589 5.29925 10.8513 4.25001 11.9294 3.55216H11.9293ZM18.501 3.55216C19.579 4.25001 20.2714 5.29919 20.2717 6.48009C20.2717 7.65413 19.5882 8.70823 18.5211 9.40602C20.3487 8.87868 21.6102 7.76493 21.6102 6.48009C21.6101 5.19044 20.3395 4.07745 18.501 3.55216Z" fill="#39E7BD"/>
</svg>
