<svg width="30" height="30" viewBox="0 0 30 30" fill="none" xmlns="http://www.w3.org/2000/svg">
<path d="M7.96872 17.8125C7.13433 17.8125 6.31868 18.0599 5.62491 18.5235C4.93114 18.9871 4.39041 19.6459 4.07111 20.4168C3.7518 21.1877 3.66825 22.0359 3.83103 22.8543C3.99382 23.6726 4.39561 24.4244 4.98562 25.0144C5.57562 25.6044 6.32733 26.0062 7.14568 26.1689C7.96404 26.3317 8.81229 26.2482 9.58317 25.9289C10.354 25.6096 11.0129 25.0688 11.4765 24.3751C11.94 23.6813 12.1875 22.8656 12.1875 22.0312C12.1875 20.9124 11.743 19.8393 10.9518 19.0481C10.1607 18.257 9.0876 17.8125 7.96872 17.8125ZM7.96872 24.375C7.50517 24.375 7.05203 24.2375 6.6666 23.98C6.28118 23.7225 5.98077 23.3564 5.80338 22.9282C5.62599 22.4999 5.57957 22.0287 5.67001 21.574C5.76044 21.1194 5.98366 20.7017 6.31144 20.374C6.63922 20.0462 7.05684 19.823 7.51148 19.7325C7.96612 19.6421 8.43737 19.6885 8.86564 19.8659C9.2939 20.0433 9.65995 20.3437 9.91748 20.7291C10.175 21.1146 10.3125 21.5677 10.3125 22.0312C10.3125 22.6529 10.0655 23.249 9.626 23.6885C9.18647 24.1281 8.59032 24.375 7.96872 24.375ZM4.02419 12.4617L5.70583 10.7812L4.02419 9.10078C3.84828 8.92487 3.74945 8.68628 3.74945 8.4375C3.74945 8.18872 3.84828 7.95013 4.02419 7.77422C4.2001 7.59831 4.43869 7.49948 4.68747 7.49948C4.93625 7.49948 5.17484 7.59831 5.35075 7.77422L7.03122 9.45586L8.71169 7.77422C8.8876 7.59831 9.12619 7.49948 9.37497 7.49948C9.62375 7.49948 9.86234 7.59831 10.0383 7.77422C10.2142 7.95013 10.313 8.18872 10.313 8.4375C10.313 8.68628 10.2142 8.92487 10.0383 9.10078L8.35661 10.7812L10.0383 12.4617C10.2142 12.6376 10.313 12.8762 10.313 13.125C10.313 13.3738 10.2142 13.6124 10.0383 13.7883C9.86234 13.9642 9.62375 14.063 9.37497 14.063C9.12619 14.063 8.8876 13.9642 8.71169 13.7883L7.03122 12.1066L5.35075 13.7883C5.17484 13.9642 4.93625 14.063 4.68747 14.063C4.43869 14.063 4.2001 13.9642 4.02419 13.7883C3.84828 13.6124 3.74945 13.3738 3.74945 13.125C3.74945 12.8762 3.84828 12.6376 4.02419 12.4617ZM25.9758 23.7117C26.0629 23.7988 26.132 23.9022 26.1791 24.016C26.2262 24.1298 26.2505 24.2518 26.2505 24.375C26.2505 24.4982 26.2262 24.6202 26.1791 24.734C26.132 24.8478 26.0629 24.9512 25.9758 25.0383C25.8887 25.1254 25.7852 25.1945 25.6714 25.2416C25.5576 25.2888 25.4357 25.313 25.3125 25.313C25.1893 25.313 25.0673 25.2888 24.9535 25.2416C24.8397 25.1945 24.7363 25.1254 24.6492 25.0383L22.9687 23.3566L21.2883 25.0383C21.1123 25.2142 20.8738 25.313 20.625 25.313C20.3762 25.313 20.1376 25.2142 19.9617 25.0383C19.7858 24.8624 19.687 24.6238 19.687 24.375C19.687 24.1262 19.7858 23.8876 19.9617 23.7117L21.6433 22.0312L19.9617 20.3508C19.7858 20.1749 19.687 19.9363 19.687 19.6875C19.687 19.4387 19.7858 19.2001 19.9617 19.0242C20.1376 18.8483 20.3762 18.7495 20.625 18.7495C20.8738 18.7495 21.1123 18.8483 21.2883 19.0242L22.9687 20.7059L24.6492 19.0242C24.8251 18.8483 25.0637 18.7495 25.3125 18.7495C25.5613 18.7495 25.7998 18.8483 25.9758 19.0242C26.1517 19.2001 26.2505 19.4387 26.2505 19.6875C26.2505 19.9363 26.1517 20.1749 25.9758 20.3508L24.2941 22.0312L25.9758 23.7117ZM20.6801 13.2223C19.9558 15.8391 17.7129 18.1008 15.2273 18.7219C15.1507 18.7409 15.0719 18.7504 14.9929 18.75C14.7643 18.7496 14.5438 18.6656 14.3727 18.514C14.2017 18.3623 14.0919 18.1534 14.0641 17.9265C14.0363 17.6995 14.0924 17.4703 14.2218 17.2818C14.3512 17.0934 14.545 16.9587 14.7668 16.9031C16.5984 16.4449 18.3234 14.6871 18.8683 12.7219C19.2422 11.3742 19.2457 9.32344 17.1445 7.22578L16.875 6.95039V9.375C16.875 9.62364 16.7762 9.8621 16.6004 10.0379C16.4246 10.2137 16.1861 10.3125 15.9375 10.3125C15.6888 10.3125 15.4504 10.2137 15.2746 10.0379C15.0987 9.8621 15 9.62364 15 9.375V4.6875C15 4.43886 15.0987 4.2004 15.2746 4.02459C15.4504 3.84877 15.6888 3.75 15.9375 3.75H20.625C20.8736 3.75 21.1121 3.84877 21.2879 4.02459C21.4637 4.2004 21.5625 4.43886 21.5625 4.6875C21.5625 4.93614 21.4637 5.1746 21.2879 5.35041C21.1121 5.52623 20.8736 5.625 20.625 5.625H18.2004L18.4758 5.89922C20.6133 8.03789 21.3961 10.6383 20.6801 13.2223Z" fill="#39E7BD"/>
</svg>
