<svg width="23" height="20" viewBox="0 0 23 20" fill="none" xmlns="http://www.w3.org/2000/svg">
<g clip-path="url(#clip0_11_75)">
<path d="M0.5 3.0303C0.5 1.35671 1.85671 0 3.5303 0H20.5C22.1736 0 23.5303 1.35671 23.5303 3.0303C23.5303 4.70389 22.1736 6.06061 20.5 6.06061H3.5303C1.85671 6.06061 0.5 4.70389 0.5 3.0303Z" fill="#30C5A1"/>
<path d="M6.56061 10C6.56061 8.32641 7.91732 6.9697 9.59091 6.9697H26.5606C28.2342 6.9697 29.5909 8.32641 29.5909 10C29.5909 11.6736 28.2342 13.0303 26.5606 13.0303H9.59091C7.91732 13.0303 6.56061 11.6736 6.56061 10Z" fill="#30C5A1"/>
<path d="M3.5303 13.9394C1.85671 13.9394 0.5 15.2961 0.5 16.9697C0.5 18.6433 1.85671 20 3.5303 20H20.5C22.1736 20 23.5303 18.6433 23.5303 16.9697C23.5303 15.2961 22.1736 13.9394 20.5 13.9394H3.5303Z" fill="#30C5A1"/>
</g>
<defs>
<clipPath id="clip0_11_75">
<path d="M0.5 0H12.5C18.0228 0 22.5 4.47715 22.5 10V10C22.5 15.5228 18.0228 20 12.5 20H0.5V0Z" fill="white"/>
</clipPath>
</defs>
</svg>
